<?xml version="1.0" encoding="UTF-8"?>
<svg version="1.1" xmlns="http://www.w3.org/2000/svg" width="2816" height="1536">
<path d="M0 0 C929.28 0 1858.56 0 2816 0 C2816 506.88 2816 1013.76 2816 1536 C1886.72 1536 957.44 1536 0 1536 C0 1029.12 0 522.24 0 0 Z " fill="#F6F7F1" transform="translate(0,0)"/>
<path d="M0 0 C0 0.66 0 1.32 0 2 C10.89 2.99 10.89 2.99 22 4 C22 5.32 22 6.64 22 8 C23.45212891 7.68482422 23.45212891 7.68482422 24.93359375 7.36328125 C29.63163844 6.69787266 33.57348951 7.85839348 38.0625 9.1875 C39.22749023 9.50170898 39.22749023 9.50170898 40.41601562 9.82226562 C45.25195602 11.20220797 48.86828195 13.05053212 53 16 C55.7282504 16.78215588 55.7282504 16.78215588 58 17 C58 17.66 58 18.32 58 19 C58.99 19 59.98 19 61 19 C63.1875 20.875 63.1875 20.875 65 23 C65 23.66 65 24.32 65 25 C71.01394883 25.0991017 77.02741915 25.17157916 83.04199219 25.21972656 C85.0866728 25.2398042 87.13129627 25.26707225 89.17578125 25.30175781 C92.11993537 25.35044519 95.06332834 25.37300744 98.0078125 25.390625 C98.9174173 25.41127014 99.82702209 25.43191528 100.76419067 25.45318604 C106.54575329 25.4552161 109.49970254 24.6572315 114 21 C116.59937747 19.78533763 119.27619951 18.89731439 122 18 C123.155 17.608125 124.31 17.21625 125.5 16.8125 C134.45720544 14.73314874 140.08498578 16.60021706 148 21 C153.47391894 24.46888542 157.0422181 27.09792558 158.6328125 33.578125 C158.79523437 34.45984375 158.95765625 35.3415625 159.125 36.25 C159.29257813 37.14203125 159.46015625 38.0340625 159.6328125 38.953125 C159.75398438 39.62859375 159.87515625 40.3040625 160 41 C160.99773438 41.26941406 161.99546875 41.53882813 163.0234375 41.81640625 C166.99411649 42.95245608 170.79754637 44.39329361 174.625 45.9375 C175.58792969 46.31551758 175.58792969 46.31551758 176.5703125 46.70117188 C180.27168223 48.1839952 183.61463098 49.90458375 187 52 C189.19130534 52.69579454 189.19130534 52.69579454 191 53 C191 52.34 191 51.68 191 51 C195.34305189 53.04378913 199.24102266 55.71455173 203.24609375 58.34375 C205.79358183 59.87585631 208.24040506 60.92330558 211 62 C212.24888001 62.76018783 213.47912722 63.55194349 214.6875 64.375 C218.49112466 66.82223775 222.37137949 68.42212207 226.58984375 70.01953125 C229.93787843 71.38153563 232.91570315 73.12260192 236 75 C236 75.66 236 76.32 236 77 C237.98 77.66 239.96 78.32 242 79 C242 79.66 242 80.32 242 81 C243.32 81.33 244.64 81.66 246 82 C246 82.66 246 83.32 246 84 C246.72960938 84.25910156 247.45921875 84.51820313 248.2109375 84.78515625 C257.3815143 88.77962318 264.88593897 97.61092042 271.9375 104.5 C272.76652832 105.29462646 273.59555664 106.08925293 274.44970703 106.90795898 C278.84379754 111.27107991 281.8904735 115.04286153 284.11352539 120.83251953 C285.03414602 123.08348895 286.14955892 124.98329608 287.46875 127.0234375 C290.09951773 131.09227781 292.33701812 135.29192272 294.5 139.625 C294.88873291 140.40045166 295.27746582 141.17590332 295.67797852 141.97485352 C298.61283005 147.94808192 300.96132479 153.94599533 303.02734375 160.27734375 C303.93487484 163.16496367 303.93487484 163.16496367 306 166 C306.48657227 167.97363281 306.48657227 167.97363281 306.81640625 170.203125 C306.94080078 171.01910156 307.06519531 171.83507812 307.19335938 172.67578125 C307.37608398 173.95001953 307.37608398 173.95001953 307.5625 175.25 C307.68818359 176.08402344 307.81386719 176.91804687 307.94335938 177.77734375 C308.18979418 179.42110259 308.431663 181.0655532 308.66870117 182.71069336 C308.96125368 184.73225921 309.27219869 186.75114491 309.5859375 188.76953125 C309.9624579 191.70710082 310.10300928 194.48032265 310.0625 197.4375 C310.05347656 198.30246094 310.04445313 199.16742187 310.03515625 200.05859375 C310.01775391 201.01958984 310.01775391 201.01958984 310 202 C310.99 202 311.98 202 313 202 C312.67 202.99 312.34 203.98 312 205 C311.01 205 310.02 205 309 205 C309.03480469 206.14662109 309.03480469 206.14662109 309.0703125 207.31640625 C309.22953216 216.76723035 309.01656267 226.950312 306 236 C305.80287208 237.41275009 305.63898667 238.83035042 305.5 240.25 C305.41492187 241.04019531 305.32984375 241.83039063 305.2421875 242.64453125 C305.0266098 244.74119825 304.82483108 246.83927366 304.625 248.9375 C304 252 304 252 301 254 C299.9758672 257.10176346 299.9758672 257.10176346 299.3125 260.625 C299.06113281 261.81351563 298.80976562 263.00203125 298.55078125 264.2265625 C298.36902344 265.14179687 298.18726563 266.05703125 298 267 C297.01 267 296.02 267 295 267 C294.95101562 267.79664063 294.90203125 268.59328125 294.8515625 269.4140625 C294.04901186 280.78814229 294.04901186 280.78814229 292 285 C291.01 285.33 290.02 285.66 289 286 C287.78130071 288.50447516 287.78130071 288.50447516 287 291 C286.34 291 285.68 291 285 291 C284.67 292.32 284.34 293.64 284 295 C283.34 295 282.68 295 282 295 C281.90460937 295.556875 281.80921875 296.11375 281.7109375 296.6875 C280.82332509 299.57467884 279.39203798 301.55447908 277.625 304 C277.01914063 304.845625 276.41328125 305.69125 275.7890625 306.5625 C275.19867187 307.366875 274.60828125 308.17125 274 309 C273.47148438 309.763125 272.94296875 310.52625 272.3984375 311.3125 C271.93695312 311.869375 271.47546875 312.42625 271 313 C270.34 313 269.68 313 269 313 C268.731875 313.53625 268.46375 314.0725 268.1875 314.625 C266.79166667 317.41666667 265.39583333 320.20833333 264 323 C263.34 323 262.68 323 262 323 C262.33 325.97 262.66 328.94 263 332 C262.67 331.34 262.34 330.68 262 330 C260.35636866 329.27840576 258.68949614 328.60648579 257 328 C257.0940972 336.01698477 257.0940972 336.01698477 260.0625 343.25 C261.0215625 344.11625 261.0215625 344.11625 262 345 C262.66 343.35 263.32 341.7 264 340 C264.33 340 264.66 340 265 340 C265 342.97 265 345.94 265 349 C266.32 349.66 267.64 350.32 269 351 C270.88671875 352.5859375 270.88671875 352.5859375 272.6875 354.375 C273.28949219 354.96023438 273.89148437 355.54546875 274.51171875 356.1484375 C276.10135013 358.12608914 276.5905426 359.5214179 277 362 C277.598125 362.061875 278.19625 362.12375 278.8125 362.1875 C281.94024732 363.34923472 282.38843102 365.08677915 284 368 C285.57062411 370.03494744 287.17035831 372.04143782 288.79296875 374.03515625 C290 376 290 376 290 380 C290.66 380 291.32 380 292 380 C293.59138085 384.17737474 294.21278058 387.53160785 294 392 C294.99 392.33 295.98 392.66 297 393 C298.64820195 395.60242414 299 396.86248779 299 400 C300.093125 400.020625 301.18625 400.04125 302.3125 400.0625 C306 401 306 401 308 404.25 C309.22464573 408.8424215 309.09889689 411.00200566 306.83984375 415.109375 C305 417 305 417 302.07421875 417.56640625 C291.80904268 417.55456637 291.80904268 417.55456637 288.3125 414.5625 C287.549375 413.716875 286.78625 412.87125 286 412 C285.34 411.67 284.68 411.34 284 411 C284.03480469 412.22976563 284.03480469 412.22976563 284.0703125 413.484375 C284.09738281 415.10085938 284.09738281 415.10085938 284.125 416.75 C284.15980469 418.35101562 284.15980469 418.35101562 284.1953125 419.984375 C284.00487687 422.92470106 283.52670104 424.52361878 282 427 C286.98903209 428.2168371 290.16925648 427.63900226 295 426 C296.423125 425.62875 296.423125 425.62875 297.875 425.25 C301.58597959 423.76560816 304.58988223 421.72639843 307.8515625 419.4375 C311.58782062 416.93760366 313.38224642 416 318 416 C317.34 414.35 316.68 412.7 316 411 C318.31 411.33 320.61 411.66 323 412 C323.39058594 411.13955078 323.39058594 411.13955078 323.7890625 410.26171875 C325.09338587 407.8255793 326.57528158 405.90693214 328.375 403.8125 C328.96023438 403.11769531 329.54546875 402.42289063 330.1484375 401.70703125 C332.17717163 399.83665822 333.38625563 399.62206025 336 399 C338.84349831 393.65422317 340.35233762 387.80771775 342 382 C342.66 382 343.32 382 344 382 C348.56046977 361.11955045 348.56046977 361.11955045 344.875 341 C341.50456983 336.69423514 336.96541303 334.74466124 332.12353516 332.50830078 C327.14564691 330.18635077 323.30565027 328.1369888 321 323 C319.97849764 318.68642813 319.38490849 314.41317487 319 310 C318.34 311.32 317.68 312.64 317 314 C316.37322173 305.50367235 317.61765955 299.96217024 323.1875 293.4375 C327.0037204 290.13010899 330.97242756 287.04480967 335 284 C334.70996094 283.00033203 334.70996094 283.00033203 334.4140625 281.98046875 C333.06767461 277.21478884 331.86183045 272.51459797 331.0625 267.625 C330.13505543 262.13167449 328.5285286 256.94340349 326.8046875 251.65234375 C326 249 326 249 326 247 C325.34 247 324.68 247 324 247 C322.11129719 244.29012205 320.85320802 241.63302005 319.625 238.5625 C318.30175958 235.66154984 317.32700315 234.01410927 315.3125 231.6875 C313 229 313 229 313 227 C317.24822374 227.47202486 319.19989709 229.96655518 322 233 C321.66226563 232.32453125 321.32453125 231.6490625 320.9765625 230.953125 C319.65104167 228.30208333 318.32552083 225.65104167 317 223 C316.42378906 221.94039062 316.42378906 221.94039062 315.8359375 220.859375 C315 219 315 219 315 216 C317.80160249 217.02366245 318.86157095 217.76991876 320.421875 220.36328125 C320.86015625 221.33652344 321.2984375 222.30976562 321.75 223.3125 C324.56017842 229.28593054 327.8549409 234.67721306 331.4609375 240.1875 C333 243 333 243 333 247 C333.66 247 334.32 247 335 247 C335.99 249.31 336.98 251.62 338 254 C337.3727587 249.35841437 335.47854239 245.49966987 333.375 241.375 C333.02179687 240.67439453 332.66859375 239.97378906 332.3046875 239.25195312 C329.23024578 233.25130169 325.7851991 227.58316867 322 222 C325 222 325 222 326.5703125 223.35546875 C331.72285995 229.42718924 331.72285995 229.42718924 332 234 C333.32 234.33 334.64 234.66 336 235 C336 236.32 336 237.64 336 239 C336.66 239 337.32 239 338 239 C338.28875 239.804375 338.5775 240.60875 338.875 241.4375 C339.73262568 244.1326468 339.73262568 244.1326468 342 245 C342.31490911 240.38133302 341.8791071 238.54351644 339 235 C338.71125 233.989375 338.4225 232.97875 338.125 231.9375 C336.73829004 228.31664621 335.28329087 227.8521128 332 226 C331.125 223.875 331.125 223.875 331 222 C331.33 221.67 331.66 221.34 332 221 C331.43410156 220.38511719 330.86820313 219.77023437 330.28515625 219.13671875 C329.55167969 218.32847656 328.81820312 217.52023437 328.0625 216.6875 C327.33160156 215.88699219 326.60070313 215.08648438 325.84765625 214.26171875 C324 212 324 212 323 209 C322.175 208.175 321.35 207.35 320.5 206.5 C318 204 318 204 317 201 C318.65 201.33 320.3 201.66 322 202 C322 202.66 322 203.32 322 204 C322.66 204 323.32 204 324 204 C324 204.66 324 205.32 324 206 C325.32 206.33 326.64 206.66 328 207 C329.125 210.75 329.125 210.75 328 213 C328.86625 213.165 329.7325 213.33 330.625 213.5 C334.71280993 215.31680441 336.145813 217.40223128 338.60546875 221.02734375 C339.89436174 223.00690762 339.89436174 223.00690762 341.5078125 224.34765625 C343.70009406 226.77523505 344.5445801 229.45221359 345.6875 232.5 C346.34298828 234.21703125 346.34298828 234.21703125 347.01171875 235.96875 C348 239 348 239 348 242 C348.66 242 349.32 242 350 242 C353.42857143 249.28571429 353.42857143 249.28571429 353 254 C353.66 254 354.32 254 355 254 C357.08193697 260.83198735 359.01925543 267.40366334 359.9375 274.5 C361.11513542 282.26826172 364.98536693 285.21913782 371 290 C377.62868316 297.0186057 378.55900082 304.26341163 378.359375 313.5859375 C377.74976574 319.37722547 375.61118062 323.75585557 372.25 328.4375 C369.0797224 334.93656908 371.19216285 344.01330034 372 351 C372.77496213 357.70237518 373.12924339 364.2506229 373 371 C372.34 371 371.68 371 371 371 C371.02320313 371.88042969 371.04640625 372.76085937 371.0703125 373.66796875 C371.09738281 375.41013672 371.09738281 375.41013672 371.125 377.1875 C371.14820313 378.33605469 371.17140625 379.48460937 371.1953125 380.66796875 C371.00231644 383.96048152 370.34920909 386.02972626 369 389 C368.71125 390.216875 368.4225 391.43375 368.125 392.6875 C366.67351976 398.72200054 364.47971733 404.56903581 361.25 409.875 C359.66198658 412.16372525 359.66198658 412.16372525 360 416 C359.34 416 358.68 416 358 416 C357.46375 417.051875 356.9275 418.10375 356.375 419.1875 C354.12439626 423.1220661 351.69689493 425.38136609 348 428 C346.66666667 428.33333333 345.33333333 428.66666667 344 429 C343.71125 429.66 343.4225 430.32 343.125 431 C342.75375 431.66 342.3825 432.32 342 433 C338.875 433.75 338.875 433.75 336 434 C336 435.32 336 436.64 336 438 C334.329375 438.433125 334.329375 438.433125 332.625 438.875 C328.99708908 439.69241329 328.99708908 439.69241329 327 442 C325.68 442 324.36 442 323 442 C323 442.99 323 443.98 323 445 C320.3196507 446.67521831 318.02863481 447.18690163 314.9375 447.5 C310.9542797 447.70875489 310.9542797 447.70875489 308 450 C308 450.66 308 451.32 308 452 C308.66 452.33 309.32 452.66 310 453 C310.125 458.75 310.125 458.75 309 461 C308.7677354 463.71262116 308.58063765 466.40773126 308.4375 469.125 C308.39431641 469.87910156 308.35113281 470.63320313 308.30664062 471.41015625 C308.2005168 473.27321888 308.09974999 475.13658524 308 477 C307.01 477 306.02 477 305 477 C304.87625 477.78375 304.7525 478.5675 304.625 479.375 C304.41875 480.57125 304.2125 481.7675 304 483 C303.93554688 483.66902344 303.87109375 484.33804687 303.8046875 485.02734375 C302.76079306 492.85655208 298.97822953 499.15581557 295.19140625 505.94921875 C293.19546238 509.54604904 291.55220682 513.19185273 290 517 C289.01 517 288.02 517 287 517 C287 517.99 287 518.98 287 520 C286.34 520 285.68 520 285 520 C285 520.99 285 521.98 285 523 C284.34 523 283.68 523 283 523 C282.773125 523.53625 282.54625 524.0725 282.3125 524.625 C279.77118604 529.22356812 277.06701418 532.60865879 272.4375 535.0625 C268.98463956 536.68804617 268.98463956 536.68804617 267.4140625 539.2265625 C263.88213419 543.28427949 259.54949617 545.61479364 254.9375 548.3125 C254.02677734 548.86228516 253.11605469 549.41207031 252.17773438 549.97851562 C245.39866071 554 245.39866071 554 242 554 C242 554.66 242 555.32 242 556 C238.01151385 558.02371465 234.00943749 560.01814877 230 562 C228.329375 562.8353125 228.329375 562.8353125 226.625 563.6875 C221.93797365 565.38452678 217.19300512 566.30726268 212.3046875 567.25390625 C209.10180721 567.85760693 209.10180721 567.85760693 206.69921875 569.0546875 C202.52611563 570.51617948 198.32983924 570.43266157 193.9375 570.5625 C192.15482087 570.62264782 190.37225638 570.68632034 188.58984375 570.75390625 C187.80472412 570.77783447 187.01960449 570.8017627 186.21069336 570.82641602 C184.0327132 570.99743135 182.10650281 571.44034479 180 572 C170.3895584 572.85707155 162.04651573 571.09503476 152.90283203 568.51708984 C150.08178293 567.75047681 147.22709023 567.13968814 144.375 566.5 C139.81722504 565.37608002 136.64874593 563.93926756 133 561 C133.72684778 572.62956452 137.38289123 580.99894151 143 591 C143.54011719 591.97066406 144.08023438 592.94132813 144.63671875 593.94140625 C145.47331754 595.434819 146.32108987 596.92212024 147.1875 598.3984375 C148 600 148 600 148 602 C148.99 602 149.98 602 151 602 C151.36552803 603.41377782 151.71695495 604.83120576 152.0625 606.25 C152.25972656 607.03890625 152.45695312 607.8278125 152.66015625 608.640625 C153.01497267 611.10394822 152.76877544 612.65604132 152 615 C152.66 615 153.32 615 154 615 C156.84100955 620.60705842 157.44041038 625.00797335 157.3125 631.25 C157.31572266 632.05179688 157.31894531 632.85359375 157.32226562 633.6796875 C157.28612229 637.60945397 157.22321069 639.66518396 155 643 C154.01 643 153.02 643 152 643 C152 645.31 152 647.62 152 650 C151.38125 650.2475 150.7625 650.495 150.125 650.75 C147.83862528 651.81105913 147.83862528 651.81105913 147.125 654.0625 C146.75375 654.701875 146.3825 655.34125 146 656 C142.875 656.75 142.875 656.75 140 657 C140 657.66 140 658.32 140 659 C136.97833856 660.00722048 135.02274409 660.07341677 131.875 660 C130.25043671 659.96232897 128.62433238 659.95342416 127 660 C126.67 660.33 126.34 660.66 126 661 C119.67331327 661.81247977 116.14684205 660.8887251 111 657 C107.7750792 655.75675853 107.7750792 655.75675853 105 655 C105.556875 655.804375 106.11375 656.60875 106.6875 657.4375 C114 668.44556452 114 668.44556452 114 673 C113.01 672.67 112.02 672.34 111 672 C111.474375 673.216875 111.94875 674.43375 112.4375 675.6875 C113.59924038 678.77268791 114.48925187 681.73121198 115 685 C114.34 685 113.68 685 113 685 C111.46382917 682.42474285 109.94611799 679.841326 108.4375 677.25 C107.99986328 676.52039063 107.56222656 675.79078125 107.11132812 675.0390625 C106.70205078 674.33007812 106.29277344 673.62109375 105.87109375 672.890625 C105.48880615 672.24125977 105.10651855 671.59189453 104.71264648 670.92285156 C103.83652707 668.5589199 104.17806778 667.34057154 105 665 C104.34 665 103.68 665 103 665 C103 663.68 103 662.36 103 661 C101.68 660.34 100.36 659.68 99 659 C99 657.35 99 655.7 99 654 C98.34 654 97.68 654 97 654 C96.52820312 653.03900391 96.52820312 653.03900391 96.046875 652.05859375 C94.03286639 647.9881125 92.02124078 643.96043263 89.6875 640.0625 C88 637 88 637 88 634 C87.34 634 86.68 634 86 634 C85.58041016 633.10861328 85.58041016 633.10861328 85.15234375 632.19921875 C82.33754582 626.37955614 79.15944374 620.96078224 75.63671875 615.54296875 C73.62926008 612.42398165 71.81203469 609.23577624 70 606 C68.13335343 602.33539221 68.13335343 602.33539221 65 600 C63.6250851 597.09740189 63 595.23861295 63 592 C62.39671875 591.7525 61.7934375 591.505 61.171875 591.25 C58.64277047 589.79440027 57.73227493 588.48875791 56.25 586 C55.82203125 585.29875 55.3940625 584.5975 54.953125 583.875 C54 582 54 582 54 580 C53.34 580 52.68 580 52 580 C52 579.01 52 578.02 52 577 C51.34 577 50.68 577 50 577 C50 576.34 50 575.68 50 575 C49.34 575 48.68 575 48 575 C48 573.68 48 572.36 48 571 C47.443125 570.773125 46.88625 570.54625 46.3125 570.3125 C43.33840412 568.62449964 41.27991135 566.53323483 39 564 C39 563.34 39 562.68 39 562 C37.35 561.34 35.7 560.68 34 560 C34.33 558.35 34.66 556.7 35 555 C34.484375 555.226875 33.96875 555.45375 33.4375 555.6875 C29.66887187 556.17065745 27.30188789 554.74099543 24 553 C22.96854629 551.69084721 21.96457834 550.35917857 21 549 C19.33607955 548.32650839 17.66967972 547.6590841 16 547 C15.67 546.01 15.34 545.02 15 544 C13.3338075 543.50014225 11.66377053 543.00947532 9.9765625 542.5859375 C5.71281042 541.32197937 1.87761907 539.48813668 -0.4375 535.5625 C-2.47798248 532.21610873 -4.97661274 530.9823061 -8.35546875 529.11328125 C-8.89816406 528.74589844 -9.44085937 528.37851562 -10 528 C-10 527.34 -10 526.68 -10 526 C-10.8971875 525.87625 -10.8971875 525.87625 -11.8125 525.75 C-14.62932273 524.78423221 -15.47799132 523.51131433 -17 521 C-17 520.34 -17 519.68 -17 519 C-18.32 518.67 -19.64 518.34 -21 518 C-21 517.01 -21 516.02 -21 515 C-21.99 515 -22.98 515 -24 515 C-24 514.34 -24 513.68 -24 513 C-24.99 512.67 -25.98 512.34 -27 512 C-27.33 511.01 -27.66 510.02 -28 509 C-32.4761519 509.59514379 -35.72239213 511.3420507 -39.625 513.5625 C-45.67002012 517 -45.67002012 517 -49 517 C-49.33 517.99 -49.66 518.98 -50 520 C-53.6037898 521.52160014 -56.05220686 522 -60 522 C-60.33 522.99 -60.66 523.98 -61 525 C-62.9777832 525.78369141 -62.9777832 525.78369141 -65.55078125 526.3515625 C-66.94006836 526.66867187 -66.94006836 526.66867187 -68.35742188 526.9921875 C-69.33259766 527.20101562 -70.30777344 527.40984375 -71.3125 527.625 C-72.27607422 527.8415625 -73.23964844 528.058125 -74.23242188 528.28125 C-76.03161613 528.68522709 -77.83205185 529.08374021 -79.6340332 529.47509766 C-81.11233027 529.80306574 -82.58483964 530.15999671 -84.04541016 530.55957031 C-86.16047094 531.03615908 -88.05607484 531.12939017 -90.22265625 531.1328125 C-91.00833984 531.13410156 -91.79402344 531.13539063 -92.60351562 531.13671875 C-93.41498047 531.13285156 -94.22644531 531.12898437 -95.0625 531.125 C-95.87783203 531.12886719 -96.69316406 531.13273438 -97.53320312 531.13671875 C-98.31759766 531.13542969 -99.10199219 531.13414062 -99.91015625 531.1328125 C-100.97955444 531.13112061 -100.97955444 531.13112061 -102.07055664 531.12939453 C-104 531 -104 531 -107 530 C-107 531.65 -107 533.3 -107 535 C-114.35669151 533.56131276 -121.19312154 532.14163621 -128 529 C-129.64029348 528.50219949 -131.28676712 528.02450542 -132.9375 527.5625 C-137.63614771 526.20974997 -141.69674622 524.31100666 -146 522 C-146 521.34 -146 520.68 -146 520 C-146.86625 519.814375 -146.86625 519.814375 -147.75 519.625 C-150 519 -150 519 -151.875 518 C-154.5382649 516.74669887 -157.09722329 516.39583319 -160 516 C-160 515.34 -160 514.68 -160 514 C-160.66 514 -161.32 514 -162 514 C-162 513.34 -162 512.68 -162 512 C-162.62648438 511.90203125 -163.25296875 511.8040625 -163.8984375 511.703125 C-164.71570312 511.55359375 -165.53296875 511.4040625 -166.375 511.25 C-167.18710938 511.11078125 -167.99921875 510.9715625 -168.8359375 510.828125 C-171.6421712 509.75425939 -171.70699544 508.6206874 -173 506 C-175.24723207 504.67888258 -175.24723207 504.67888258 -177.9375 503.6875 C-184.5497703 500.8735826 -191.58437167 497.46306762 -196.6875 492.2890625 C-197.93120653 490.76643066 -197.93120653 490.76643066 -200 491 C-199.34 492.65 -198.68 494.3 -198 496 C-197.34 496 -196.68 496 -196 496 C-194.33329974 499.52948291 -193.86416544 501.28272326 -195 505 C-200.2473163 497.44386453 -204.31970838 490.55771314 -206.875 481.6875 C-208.5258739 476.02170078 -210.82950391 471.21398226 -213.828125 466.14453125 C-215 464 -215 464 -215 462 C-215.99 462 -216.98 462 -218 462 C-218.66 456.72 -219.32 451.44 -220 446 C-221.32 445.67 -222.64 445.34 -224 445 C-225.38226016 442.23547967 -225.09525387 439.9538637 -225.0625 436.875 C-225.05347656 435.77929688 -225.04445313 434.68359375 -225.03515625 433.5546875 C-225.01775391 432.29011719 -225.01775391 432.29011719 -225 431 C-225.83917969 431.0721875 -226.67835938 431.144375 -227.54296875 431.21875 C-236.44869926 431.90600895 -245.27127586 432.08006957 -254.20385742 431.96289062 C-255.07244385 431.95451172 -255.94103027 431.94613281 -256.8359375 431.9375 C-257.61501465 431.92589844 -258.3940918 431.91429687 -259.19677734 431.90234375 C-261.02253413 431.79992289 -261.02253413 431.79992289 -262 433 C-264.78113465 433.10222549 -267.53139375 433.14146285 -270.3125 433.125 C-271.53731079 433.11883667 -271.53731079 433.11883667 -272.78686523 433.11254883 C-282.65641997 433.02214515 -291.74062742 432.71777838 -301 429 C-301 428.34 -301 427.68 -301 427 C-301.66 426.67 -302.32 426.34 -303 426 C-298.17093299 426.62987831 -293.47085623 427.51167395 -288.72265625 428.59765625 C-285.11295297 429.13108442 -281.64829291 429.05803223 -278 429 C-279.17433594 428.84144531 -280.34867188 428.68289063 -281.55859375 428.51953125 C-294.44102242 426.68668728 -306.94794505 424.04883383 -319 419 C-319.33 419.66 -319.66 420.32 -320 421 C-320.495 419.515 -320.495 419.515 -321 418 C-321.928125 417.979375 -322.85625 417.95875 -323.8125 417.9375 C-332.82549231 416.62916241 -342.71725865 408.2698139 -349 402 C-349.7734375 399.76171875 -349.7734375 399.76171875 -350 398 C-350.66 398 -351.32 398 -352 398 C-352 397.34 -352 396.68 -352 396 C-352.66 396 -353.32 396 -354 396 C-357 392.53846154 -357 392.53846154 -357 390 C-357.66 390 -358.32 390 -359 390 C-362 384.25 -362 384.25 -362 382 C-362.66 382 -363.32 382 -364 382 C-368.25151562 377.10303977 -369.9308462 371.43726879 -371.32421875 365.22265625 C-371.54722656 364.48917969 -371.77023437 363.75570313 -372 363 C-372.66 362.67 -373.32 362.34 -374 362 C-374 361.01 -374 360.02 -374 359 C-374.99 358.67 -375.98 358.34 -377 358 C-379.30535548 352.80298875 -380.71568311 347.64928307 -381.6875 342.0625 C-381.87856323 340.98464233 -381.87856323 340.98464233 -382.07348633 339.88500977 C-383.35933192 331.9293253 -383.27143232 324.03238613 -383 316 C-382.34 316 -381.68 316 -381 316 C-381.03480469 314.98164062 -381.06960938 313.96328125 -381.10546875 312.9140625 C-381.29310875 304.8049192 -380.95082104 297.01323968 -379.625 289 C-379.43587036 287.8255835 -379.43587036 287.8255835 -379.24291992 286.62744141 C-378.90497407 284.73637821 -378.46192675 282.86465844 -378 281 C-377.34 280.67 -376.68 280.34 -376 280 C-375.15879612 277.82464268 -375.15879612 277.82464268 -374.5 275.25 C-373.5080154 271.73525254 -372.45486821 268.35738818 -371 265 C-370.01 265 -369.02 265 -368 265 C-368.31211063 268.35518923 -368.72536792 271.28515725 -369.93945312 274.4453125 C-374.15427814 285.51394062 -373.44449075 296.64213783 -373.25 308.3125 C-373.229897 310.42120693 -373.21165298 312.52993244 -373.1953125 314.63867188 C-373.15506664 319.75995802 -373.07672484 324.87861724 -373 330 C-372.67 317.79 -372.34 305.58 -372 293 C-371.34 292.67 -370.68 292.34 -370 292 C-369.93941406 293.0621875 -369.87882812 294.124375 -369.81640625 295.21875 C-369.20729762 305.63715103 -369.20729762 305.63715103 -368 316 C-367.34 316 -366.68 316 -366 316 C-366.02320313 316.71285156 -366.04640625 317.42570312 -366.0703125 318.16015625 C-366.17815674 323.88360394 -365.92057311 328.59838814 -364 334 C-363.34 334 -362.68 334 -362 334 C-362.33773438 332.8759375 -362.67546875 331.751875 -363.0234375 330.59375 C-364.22491147 325.78785414 -364.0241977 321.40214774 -363.625 316.5 C-363.56828125 315.67757813 -363.5115625 314.85515625 -363.453125 314.0078125 C-363.31335136 312.00439034 -363.15828133 310.00204497 -363 308 C-362.67 308 -362.34 308 -362 308 C-362 312.29 -362 316.58 -362 321 C-361.34 320.67 -360.68 320.34 -360 320 C-359.67 314.39 -359.34 308.78 -359 303 C-358.67 303 -358.34 303 -358 303 C-357.90912109 304.39025391 -357.90912109 304.39025391 -357.81640625 305.80859375 C-357.73261719 307.00613281 -357.64882812 308.20367188 -357.5625 309.4375 C-357.44068359 311.22994141 -357.44068359 311.22994141 -357.31640625 313.05859375 C-357.32343886 315.88570244 -357.32343886 315.88570244 -356 317 C-355.90426228 318.89135183 -355.81523639 320.78328745 -355.76049805 322.67626953 C-355.36636992 335.55990951 -353.36931194 347.62622868 -347 359 C-347 359.66 -347 360.32 -347 361 C-346.01 361 -345.02 361 -344 361 C-344 360.34 -344 359.68 -344 359 C-343.01 359 -342.02 359 -341 359 C-340.68546875 359.83144531 -340.3709375 360.66289063 -340.046875 361.51953125 C-339.61890625 362.60621094 -339.1909375 363.69289063 -338.75 364.8125 C-338.33234375 365.89144531 -337.9146875 366.97039062 -337.484375 368.08203125 C-335.94637242 371.10542053 -334.77716863 372.17677751 -332 374 C-330.96210419 375.64333504 -329.96432076 377.31243867 -329 379 C-328.278125 379.86625 -327.55625 380.7325 -326.8125 381.625 C-325 384 -325 384 -325 387 C-323.9790625 387.37125 -323.9790625 387.37125 -322.9375 387.75 C-318.47721376 389.64799415 -314.33846585 391.62097457 -310.9375 395.125 C-308.51055574 397.47365574 -306.22204549 398.12126032 -303 399 C-303 399.66 -303 400.32 -303 401 C-298.66579301 403.03165952 -294.71403788 403.52060632 -290 404 C-290 404.99 -290 405.98 -290 407 C-287.68756208 407.02685412 -285.3750373 407.04632841 -283.0625 407.0625 C-281.77472656 407.07410156 -280.48695312 407.08570313 -279.16015625 407.09765625 C-276.13701597 407.36532549 -276.13701597 407.36532549 -275 406 C-273.275261 405.99548301 -271.55024431 406.06111795 -269.828125 406.15625 C-268.24257812 406.23552734 -268.24257812 406.23552734 -266.625 406.31640625 C-264.39057874 406.43795463 -262.15620276 406.56033858 -259.921875 406.68359375 C-258.8596875 406.73644531 -257.7975 406.78929687 -256.703125 406.84375 C-255.73020508 406.89724609 -254.75728516 406.95074219 -253.75488281 407.00585938 C-251.02659123 407.00005656 -248.64802024 406.6297342 -246 406 C-247.11375 406.16048828 -247.11375 406.16048828 -248.25 406.32421875 C-251 406 -251 406 -253.0625 403.76953125 C-253.701875 402.79371094 -254.34125 401.81789063 -255 400.8125 C-258.11313786 396.16069144 -258.11313786 396.16069144 -262 392.1875 C-264 390 -264 390 -264.3125 386.6875 C-264.209375 385.800625 -264.10625 384.91375 -264 384 C-264.928125 383.6596875 -264.928125 383.6596875 -265.875 383.3125 C-268.61410209 381.62070165 -269.05024472 380.00755839 -270 377 C-269.34 376.34 -268.68 375.68 -268 375 C-267.505 373.7625 -267.505 373.7625 -267 372.5 C-266 370 -266 370 -264 368 C-261.66253478 368.30300475 -259.32914823 368.63858045 -257 369 C-254.67841935 368.65340705 -254.67841935 368.65340705 -253 368 C-253.33 367.34 -253.66 366.68 -254 366 C-255.97485545 365.84510938 -257.95677389 365.77773479 -259.9375 365.75 C-268.5623917 365.20148715 -274.59394959 361.94904696 -280.375 355.5625 C-287.18401949 346.79419 -287.18401949 346.79419 -286.75 342.5625 C-286.37875 341.7890625 -286.37875 341.7890625 -286 341 C-288.99877977 339.44119373 -292.0437925 338.17458659 -295.1875 336.9375 C-312.98033666 329.47877746 -331.69587954 319.24967317 -343 303 C-343 302.34 -343 301.68 -343 301 C-343.99 300.67 -344.98 300.34 -346 300 C-350.14855966 295.09379692 -353.14093364 290.1492195 -355 284 C-355.61101562 283.25234375 -356.22203125 282.5046875 -356.8515625 281.734375 C-359.15926475 278.79729941 -360.6334959 275.9541439 -362.1875 272.5625 C-362.69667969 271.47066406 -363.20585938 270.37882812 -363.73046875 269.25390625 C-364.94971705 266.12887907 -365.58457933 263.31836027 -366 260 C-366.66 260 -367.32 260 -368 260 C-368.6811141 255.58543866 -369.34217619 251.16808695 -370 246.75 C-370.19078125 245.51507812 -370.3815625 244.28015625 -370.578125 243.0078125 C-371.71901671 235.26604734 -372.2291533 227.81985619 -372 220 C-372 219.01 -372 218.02 -372 217 C-372.66 216.67 -373.32 216.34 -374 216 C-373.34 213.69 -372.68 211.38 -372 209 C-371.01 209 -370.02 209 -369 209 C-369.37125 207.88625 -369.37125 207.88625 -369.75 206.75 C-369.8325 205.8425 -369.915 204.935 -370 204 C-368.67381575 202.65955571 -367.33930964 201.32733012 -366 200 C-364.56087029 197.45537383 -364.56087029 197.45537383 -363.3125 194.625 C-355.66551157 178.91148761 -344.96933762 163.72930114 -331 153 C-329.70449219 152.00226563 -329.70449219 152.00226563 -328.3828125 150.984375 C-308.23188406 135.91304348 -308.23188406 135.91304348 -297 137 C-298 140 -298 140 -299.6796875 140.921875 C-300.76636719 141.33179688 -300.76636719 141.33179688 -301.875 141.75 C-310.38786481 145.30943314 -317.75296553 150.38794037 -324.44140625 156.71484375 C-326 158 -326 158 -328 158 C-328.33 158.99 -328.66 159.98 -329 161 C-329.804375 161.309375 -330.60875 161.61875 -331.4375 161.9375 C-334.57102332 163.23676577 -334.5695383 164.06321879 -336 167 C-337.41015625 168.46484375 -337.41015625 168.46484375 -339.0625 169.9375 C-345.8354677 176.54007857 -351.90358277 184.7749585 -354.3984375 193.97265625 C-355.02560304 196.08628556 -355.88443417 197.81669976 -356.9375 199.75 C-363.75454524 212.9121412 -364.35152883 226.50362075 -364 241 C-363.98324219 241.88945313 -363.96648437 242.77890625 -363.94921875 243.6953125 C-363.60985427 249.72630418 -361.71839738 254.50461296 -359.25390625 259.98828125 C-358.05686312 262.86342222 -357.27522787 265.59910741 -356.5625 268.625 C-355.08808055 274.45527578 -352.26971585 279.01027737 -349 284 C-346 288.73611111 -346 288.73611111 -346 291 C-343.09123087 292.390117 -343.09123087 292.390117 -340 293 C-341.58593411 289.17957086 -343.24965366 285.44724682 -345.12109375 281.7578125 C-350.36171009 271.34388225 -353.98135251 261.48706547 -356 250 C-356.19078125 248.95714844 -356.3815625 247.91429687 -356.578125 246.83984375 C-357.20170484 241.16411244 -357.2249603 235.51842117 -357.25 229.8125 C-357.270625 228.65685547 -357.29125 227.50121094 -357.3125 226.31054688 C-357.3515516 217.61668553 -356.95060205 208.42590308 -352 201 C-351.34 201 -350.68 201 -350 201 C-350.144375 201.65226563 -350.28875 202.30453125 -350.4375 202.9765625 C-351.44627294 207.72620177 -352.25715306 212.11409188 -352 217 C-351.34 217 -350.68 217 -350 217 C-350.1546875 215.4221875 -350.1546875 215.4221875 -350.3125 213.8125 C-350.22718564 201.61254652 -341.71034036 189.38809194 -336 179 C-335.34 179 -334.68 179 -334 179 C-334 178.34 -334 177.68 -334 177 C-330.57439268 173.45592788 -326.45727516 170.10482438 -322 168 C-321.01 168.33 -320.02 168.66 -319 169 C-321.64 171.31 -324.28 173.62 -327 176 C-326.67 176.66 -326.34 177.32 -326 178 C-324.53548421 176.58972554 -323.0786107 175.17151204 -321.625 173.75 C-320.40683594 172.56664062 -320.40683594 172.56664062 -319.1640625 171.359375 C-317.24416857 169.26620545 -316.08366315 167.59602821 -315 165 C-314.34 165 -313.68 165 -313 165 C-313 164.34 -313 163.68 -313 163 C-311.61924657 162.02336952 -310.23013679 161.05635143 -308.80078125 160.15234375 C-305.78264961 158.22100138 -302.90734615 156.09328923 -300 154 C-304.87920571 154.44521616 -307.80421722 156.90763962 -311.4375 159.9375 C-316.28047785 163.97046271 -320.39888611 167 -327 167 C-327.33 167.66 -327.66 168.32 -328 169 C-328.66 169 -329.32 169 -330 169 C-330 169.66 -330 170.32 -330 171 C-330.74378906 171.5775 -331.48757813 172.155 -332.25390625 172.75 C-335.30863968 175.25288259 -336.91260615 177.62103603 -338.9375 181 C-339.27523438 181.56162842 -339.61296875 182.12325684 -339.9609375 182.7019043 C-343.28333298 188.31001384 -346.20074279 194.11519792 -349 200 C-349.33 200 -349.66 200 -350 200 C-349.52825098 194.14879033 -347.82206901 190.10047252 -344.875 185.0625 C-344.47337646 184.36318359 -344.07175293 183.66386719 -343.65795898 182.94335938 C-340.68528046 177.88739098 -337.5314648 172.81597036 -333 169 C-332.34 169 -331.68 169 -331 169 C-330.74476562 168.40703125 -330.48953125 167.8140625 -330.2265625 167.203125 C-328.88183502 164.78775462 -327.50785633 163.48788294 -325.375 161.75 C-324.74335937 161.22921875 -324.11171875 160.7084375 -323.4609375 160.171875 C-322.73777344 159.59179688 -322.73777344 159.59179688 -322 159 C-321.34 159.33 -320.68 159.66 -320 160 C-320.66 160.99 -321.32 161.98 -322 163 C-321.34 163.33 -320.68 163.66 -320 164 C-320 163.34 -320 162.68 -320 162 C-319.34 162 -318.68 162 -318 162 C-318 161.34 -318 160.68 -318 160 C-315.79428396 158.41152137 -313.48782685 157.04182517 -311.1640625 155.6328125 C-308.84020186 153.87943029 -308.23554068 152.56280272 -307 150 C-303.41410857 149.00815769 -301.55287397 148.81570868 -298 150 C-297.81824219 149.11248047 -297.81824219 149.11248047 -297.6328125 148.20703125 C-297.46523437 147.41683594 -297.29765625 146.62664062 -297.125 145.8125 C-296.96257812 145.03519531 -296.80015625 144.25789062 -296.6328125 143.45703125 C-296 141 -296 141 -295.015625 138.55859375 C-293.92527113 135.81174072 -293.27302644 133.13181171 -292.625 130.25 C-291.29896367 124.80592121 -289.41507944 120.03372879 -287 115 C-286.41589435 113.60448968 -285.83258322 112.20864658 -285.25 110.8125 C-281.89737999 103.23557878 -277.59098746 95.88648118 -273 89 C-272.01 89 -271.02 89 -270 89 C-270 88.34 -270 87.68 -270 87 C-268.6796875 85.73828125 -268.6796875 85.73828125 -266.875 84.3125 C-264.28788209 82.17825786 -262.06872451 80.02662685 -259.9375 77.4375 C-257.22760509 74.15823887 -254.30677591 71.6735635 -251 69 C-250.236875 68.195625 -249.47375 67.39125 -248.6875 66.5625 C-243.98649488 62.08014628 -239.00025548 58.2171012 -232.5625 56.8125 C-228.7519297 56.37309378 -228.7519297 56.37309378 -227 53 C-224.6171875 52.48828125 -224.6171875 52.48828125 -221.875 52.3125 C-220.96492188 52.24675781 -220.05484375 52.18101562 -219.1171875 52.11328125 C-218.06917969 52.05720703 -218.06917969 52.05720703 -217 52 C-217 51.34 -217 50.68 -217 50 C-215.02 50 -213.04 50 -211 50 C-211 49.01 -211 48.02 -211 47 C-209.68 47.33 -208.36 47.66 -207 48 C-207 47.34 -207 46.68 -207 46 C-203.37 45.67 -199.74 45.34 -196 45 C-196 45.99 -196 46.98 -196 48 C-201.38744379 51.05773837 -207.01448228 52.49829538 -213 54 C-213 54.66 -213 55.32 -213 56 C-216.3 56.66 -219.6 57.32 -223 58 C-223 58.66 -223 59.32 -223 60 C-223.58007812 60.31453125 -224.16015625 60.6290625 -224.7578125 60.953125 C-231.57008991 64.67308048 -231.57008991 64.67308048 -238 69 C-238 69.66 -238 70.32 -238 71 C-233.87138464 69.72122533 -230.18771436 68.15214565 -226.375 66.125 C-219.35651181 62.55449728 -211.97829137 59 -204 59 C-204 59.66 -204 60.32 -204 61 C-205.21558594 61.40992188 -206.43117188 61.81984375 -207.68359375 62.2421875 C-209.26836169 62.78607235 -210.85298997 63.33036426 -212.4375 63.875 C-213.23994141 64.14441406 -214.04238281 64.41382813 -214.86914062 64.69140625 C-215.63291016 64.95566406 -216.39667969 65.21992188 -217.18359375 65.4921875 C-217.89056396 65.73308105 -218.59753418 65.97397461 -219.32592773 66.22216797 C-221.20038805 66.88185759 -221.20038805 66.88185759 -222 69 C-221.43152344 68.80664062 -220.86304688 68.61328125 -220.27734375 68.4140625 C-206.30407354 63.70187455 -206.30407354 63.70187455 -199 64 C-199 63.34 -199 62.68 -199 62 C-194.49646738 60.24252386 -190.82360189 59.80705592 -186 60 C-186.33 60.99 -186.66 61.98 -187 63 C-186.34 62.690625 -185.68 62.38125 -185 62.0625 C-178.38236017 59.71875256 -171.4382751 59.8640492 -164.5 59.9375 C-163.26636719 59.94426758 -163.26636719 59.94426758 -162.0078125 59.95117188 C-160.00517604 59.96281511 -158.00257773 59.98074444 -156 60 C-156 60.66 -156 61.32 -156 62 C-156.58378418 62.0501123 -157.16756836 62.10022461 -157.76904297 62.15185547 C-160.47156334 62.38715882 -163.17324773 62.63104124 -165.875 62.875 C-166.7928125 62.95363281 -167.710625 63.03226562 -168.65625 63.11328125 C-177.08562105 63.88498423 -185.13085733 65.05859293 -193.02148438 68.21484375 C-195.11468578 69.04551203 -197.22590486 69.7794115 -199.359375 70.5 C-200.08253906 70.7475 -200.80570313 70.995 -201.55078125 71.25 C-203.03093189 71.75477606 -204.5127481 72.25469154 -205.99609375 72.75 C-209.86333385 74.08305224 -212.78873271 75.41181442 -216 78 C-217.8408634 78.90265219 -219.69660966 79.77528695 -221.5625 80.625 C-232.79436956 86.17952115 -240.89778021 94.61147889 -249 104 C-249.86625 104.94875 -250.7325 105.8975 -251.625 106.875 C-258.23809414 115.57643966 -263.13271216 124.80714834 -267 135 C-267.51046875 136.20462891 -267.51046875 136.20462891 -268.03125 137.43359375 C-272.5873776 149.50365761 -273.10579648 161.69501479 -270.5 174.19921875 C-269.95617295 177.24549998 -269.74526164 180.22458974 -269.5625 183.3125 C-268.86606993 192.20625445 -264.09170117 197.94745221 -259 205 C-258.45601562 205.78761719 -257.91203125 206.57523438 -257.3515625 207.38671875 C-256.84367187 208.10472656 -256.33578125 208.82273437 -255.8125 209.5625 C-255.36519531 210.20316406 -254.91789062 210.84382812 -254.45703125 211.50390625 C-252.70015512 213.30788361 -251.40732259 213.45017941 -249 214 C-248.608125 214.78375 -248.21625 215.5675 -247.8125 216.375 C-245.11017822 220.28870741 -241.46574804 220.84845491 -237 222 C-237 222.66 -237 223.32 -237 224 C-234.5418807 224.43872762 -232.08349904 224.87590909 -229.625 225.3125 C-228.86783691 225.44785156 -228.11067383 225.58320312 -227.33056641 225.72265625 C-223.26254359 226.44452351 -219.19311931 227.13439658 -215.109375 227.76171875 C-214.31708496 227.88571045 -213.52479492 228.00970215 -212.70849609 228.13745117 C-211.19175738 228.37310267 -209.67387367 228.60153765 -208.15478516 228.8215332 C-203.38240189 229.57101058 -199.42621192 230.98378959 -195 233 C-193.32235079 233.53211781 -191.63530847 234.03620842 -189.9375 234.5 C-186.92831143 235.36041852 -184.5532801 236.23195072 -181.75 237.6875 C-179.04641182 239.24074632 -179.04641182 239.24074632 -175.9375 238.875 C-173 239 -173 239 -170.4375 241.3125 C-169.2309375 242.6428125 -169.2309375 242.6428125 -168 244 C-166.34151823 245.01351664 -164.67334039 246.01120795 -163 247 C-148.63542621 256.70730963 -140.32840491 270.54002251 -135.8125 287.0625 C-135.18159348 289.87700756 -135.18159348 289.87700756 -133.98828125 291.63671875 C-132.47793297 295.24842115 -132.52940471 298.87058162 -132.375 302.75 C-132.33632812 303.54277344 -132.29765625 304.33554687 -132.2578125 305.15234375 C-132.163892 307.10119416 -132.08087178 309.05056451 -132 311 C-132.99 310.34 -133.98 309.68 -135 309 C-135.40625 306.75 -135.40625 306.75 -135.5 304 C-135.99686011 296.43778919 -137.37902914 290.06732248 -142 284 C-143.32917431 280.08243361 -144 277.1538053 -144 273 C-144.66 273 -145.32 273 -146 273 C-147.48046875 271.09375 -147.48046875 271.09375 -149.1875 268.5 C-161.77126214 250.10435597 -180.61584582 238.91709738 -202.4609375 234.66333008 C-205.63535223 234.07404454 -208.81474095 233.52754604 -212 233 C-211.01 233.33 -210.02 233.66 -209 234 C-209 234.66 -209 235.32 -209 236 C-208.21625 235.7525 -207.4325 235.505 -206.625 235.25 C-201.36975813 234.88756953 -197.7198932 236.83885325 -193 239 C-191.845 239.50660156 -190.69 240.01320313 -189.5 240.53515625 C-180.14498059 244.71003881 -180.14498059 244.71003881 -179 247 C-178.030625 247.28875 -177.06125 247.5775 -176.0625 247.875 C-173 249 -173 249 -171.625 251.125 C-171.41875 251.74375 -171.2125 252.3625 -171 253 C-170.34 253 -169.68 253 -169 253 C-169 253.99 -169 254.98 -169 256 C-168.01 256.33 -167.02 256.66 -166 257 C-166.33 257.66 -166.66 258.32 -167 259 C-170.36704285 259.2295711 -172.41370268 259.33943529 -175.375 257.625 C-175.91125 257.08875 -176.4475 256.5525 -177 256 C-177 255.34 -177 254.68 -177 254 C-177.66 254 -178.32 254 -179 254 C-179 253.34 -179 252.68 -179 252 C-180.32 252 -181.64 252 -183 252 C-183 251.34 -183 250.68 -183 250 C-184.65 250 -186.3 250 -188 250 C-188 249.34 -188 248.68 -188 248 C-188.87011719 247.88527344 -189.74023438 247.77054688 -190.63671875 247.65234375 C-194.00896572 246.998261 -196.68948975 245.97140824 -199.8125 244.5625 C-208.04825624 241.04156244 -216.04118333 239.77214587 -224.88671875 238.5625 C-228.07601253 237.98626624 -230.95256635 237.09341753 -234 236 C-234.72445313 235.75378906 -235.44890625 235.50757813 -236.1953125 235.25390625 C-236.83210938 235.02574219 -237.46890625 234.79757812 -238.125 234.5625 C-238.76695312 234.33691406 -239.40890625 234.11132812 -240.0703125 233.87890625 C-242 233 -242 233 -243.9609375 231.40234375 C-246.43512753 229.70074563 -247.5515731 229.84275057 -250.5 230 C-258.17326565 229.44462331 -263.15383396 223.4503909 -268 218 C-272.4568098 212.62857532 -275.52734884 207.82774631 -277 201 C-278.45664611 196.40596228 -280.84669622 193.56821217 -284 190 C-282.00039461 201.54817451 -282.00039461 201.54817451 -277 212 C-277 212.99 -277 213.98 -277 215 C-276.41089844 215.2578125 -275.82179688 215.515625 -275.21484375 215.78125 C-272.81549867 217.10152454 -271.41188034 218.48998306 -269.5625 220.5 C-261.97308491 228.24516801 -253.74189943 235.45107471 -243 238 C-243.99 237.34 -244.98 236.68 -246 236 C-246 235.34 -246 234.68 -246 234 C-242.58458562 234.71860965 -239.60537369 235.98501914 -236.4375 237.4375 C-235.48746094 237.86933594 -234.53742188 238.30117188 -233.55859375 238.74609375 C-231 240 -231 240 -228 242 C-228 242.66 -228 243.32 -228 244 C-223.38 244 -218.76 244 -214 244 C-214 244.66 -214 245.32 -214 246 C-212.989375 245.896875 -211.97875 245.79375 -210.9375 245.6875 C-198.50381976 245.77490724 -187.08344411 252.80536028 -176.74609375 258.98681641 C-174.42709213 260.33243396 -172.02696912 261.49806337 -169.625 262.6875 C-166.45535258 264.41420317 -166.0767411 264.83730887 -164.4375 268.3125 C-164.293125 269.199375 -164.14875 270.08625 -164 271 C-163.34 271 -162.68 271 -162 271 C-159.69498492 274.15018727 -157.76396615 277.40108351 -155.875 280.8125 C-154.36232168 284.04558545 -154.36232168 284.04558545 -152 285 C-152.45890625 284.0821875 -152.9178125 283.164375 -153.390625 282.21875 C-156.59375 275.8125 -159.796875 269.40625 -163 263 C-161.68 263 -160.36 263 -159 263 C-159 263.99 -159 264.98 -159 266 C-157.9275 266.185625 -156.855 266.37125 -155.75 266.5625 C-152.48670216 267.46933936 -151.2484572 268.57239923 -149.5625 271.5 C-148 275 -148 275 -148 277 C-147.34 277 -146.68 277 -146 277 C-145.8453125 278.36125 -145.8453125 278.36125 -145.6875 279.75 C-145.37624345 282.09139253 -144.93484133 284.20903694 -144.23046875 286.46875 C-141.27439965 296.07934909 -142.14281791 305.12691477 -143 315 C-143.99 314.67 -144.98 314.34 -146 314 C-146.99 305.09 -146.99 305.09 -148 296 C-148.66 296 -149.32 296 -150 296 C-149.84297607 296.71623535 -149.68595215 297.4324707 -149.52416992 298.17041016 C-148.653105 302.87261901 -148.53778134 307.60504313 -148.3125 312.375 C-148.25255859 313.39078125 -148.19261719 314.4065625 -148.13085938 315.453125 C-147.86033116 321.16015859 -148.07395184 325.61819034 -150 331 C-150.34135927 332.33130115 -150.67925956 333.66358148 -151 335 C-150.21238281 334.61328125 -149.42476562 334.2265625 -148.61328125 333.828125 C-137.93282198 328.72172791 -127.18971498 325.50470521 -115.69921875 322.7109375 C-112.73853478 321.93113362 -109.95037393 320.93677097 -107.10546875 319.81640625 C-97.44017788 316.0686404 -87.59867508 313.56649609 -77.4609375 311.4765625 C-73.23907802 310.5915679 -69.3490815 309.45952327 -65.32421875 307.859375 C-61.16961251 306.32321807 -56.90579085 305.12479224 -52.66015625 303.8671875 C-50.10564441 303.25668675 -50.10564441 303.25668675 -49 302 C-46.34536879 301.54540142 -43.67810862 301.29756762 -41 301 C-41.268125 300.443125 -41.53625 299.88625 -41.8125 299.3125 C-41.9053125 298.1678125 -41.9053125 298.1678125 -42 297 C-40.35834755 295.30868903 -38.68651275 293.64658139 -37 292 C-35.401924 289.98605807 -33.83926746 287.94352366 -32.3125 285.875 C-31.54550781 284.84117187 -30.77851562 283.80734375 -29.98828125 282.7421875 C-27.31009248 279.04849689 -25.7296569 276.49955088 -25 272 C-24.34 272 -23.68 272 -23 272 C-22.731875 270.865625 -22.46375 269.73125 -22.1875 268.5625 C-21.795625 267.386875 -21.40375 266.21125 -21 265 C-20.01 264.67 -19.02 264.34 -18 264 C-18.0928125 262.7625 -18.0928125 262.7625 -18.1875 261.5 C-18 258 -18 258 -16.55859375 254.41796875 C-14.68942556 249.60774758 -14.25921323 244.92803801 -13.875 239.8125 C-13.75608398 238.41994995 -13.75608398 238.41994995 -13.63476562 236.99926758 C-13.21887228 232.06483049 -12.85896548 227.12636989 -12.5 222.1875 C-10.65585891 198.05738273 -10.65585891 198.05738273 -6 188 C-5.34 187.67 -4.68 187.34 -4 187 C-3.53961976 185.22382334 -3.15763599 183.42711948 -2.8125 181.625 C-1.18117684 174.69802478 1.9832448 169.78445944 6 164 C7.17297916 162.12894254 8.33970347 160.25394866 9.5 158.375 C14.40275833 150.72323369 19.83641064 143.98558528 26.1875 137.5 C26.95453247 136.70638062 26.95453247 136.70638062 27.73706055 135.89672852 C30.45846076 133.180667 32.30400526 131.85229147 36 131 C36.69698541 129.68226195 37.36141768 128.34700959 38 127 C39.875 125.515625 39.875 125.515625 42 124.25 C42.70125 123.82203125 43.4025 123.3940625 44.125 122.953125 C46 122 46 122 48 122 C48.21398438 121.37609375 48.42796875 120.7521875 48.6484375 120.109375 C50.53556697 117.16414403 52.27476726 117.02912389 55.625 116.25 C56.62789062 116.00765625 57.63078125 115.7653125 58.6640625 115.515625 C59.43492187 115.34546875 60.20578125 115.1753125 61 115 C61.33 116.98 61.66 118.96 62 121 C61.18917969 121.18433594 60.37835937 121.36867188 59.54296875 121.55859375 C51.52619055 123.65844834 46.27888536 126.60335443 40.14453125 132.171875 C38 134 38 134 36 134 C35.34 135.32 34.68 136.64 34 138 C33.34 138 32.68 138 32 138 C32 138.66 32 139.32 32 140 C31.34 140 30.68 140 30 140 C29.67 140.99 29.34 141.98 29 143 C28.236875 143.680625 27.47375 144.36125 26.6875 145.0625 C23.13808964 148.94208807 21.70777014 153.08658313 20 158 C19.34 158 18.68 158 18 158 C17.89816406 158.55558594 17.79632812 159.11117187 17.69140625 159.68359375 C16.58179686 163.40109865 14.3540064 166.41078998 12.27734375 169.66015625 C10.76041995 171.99456419 10.76041995 171.99456419 11 175 C11.66 175 12.32 175 13 175 C13.33 175.66 13.66 176.32 14 177 C16.0162233 176.28436734 16.0162233 176.28436734 18 175 C18.144375 174.4225 18.28875 173.845 18.4375 173.25 C19.33136315 169.6745474 21.5014745 167.68134444 24 165 C24.66 165 25.32 165 26 165 C25.505 163.906875 25.01 162.81375 24.5 161.6875 C23 158 23 158 23 155 C24.32 155 25.64 155 27 155 C27 154.34 27 153.68 27 153 C27.99 152.67 28.98 152.34 30 152 C30.66 151.01 31.32 150.02 32 149 C32.66 149 33.32 149 34 149 C34 148.34 34 147.68 34 147 C36.09131358 145.3245384 38.17792764 143.775776 40.375 142.25 C41.00825195 141.80479004 41.64150391 141.35958008 42.29394531 140.90087891 C56.5078295 131 56.5078295 131 60 131 C60.33 129.68 60.66 128.36 61 127 C62.32 127 63.64 127 65 127 C65 126.01 65 125.02 65 124 C66.4540625 123.0409375 66.4540625 123.0409375 67.9375 122.0625 C71.16376951 120.40569175 71.16376951 120.40569175 71.4375 117.9375 C71.623125 117.298125 71.80875 116.65875 72 116 C76.82542347 113.5996295 81.36384088 112.35468247 86.6875 111.375 C91.44296421 110.55773067 91.44296421 110.55773067 96.08203125 109.2890625 C99.01195464 108.84748545 101.24064818 110.01060462 104 111 C108.3111646 111.81837244 112.65406578 112.39595256 117 113 C117.74894531 113.11472656 118.49789063 113.22945313 119.26953125 113.34765625 C122.9298052 113.8769423 126.32620928 113.93954307 130 113.75 C134.68366564 113.70039991 136.87968827 114.88779014 140.60546875 117.56640625 C144.87531746 120.12274308 149.69651645 121.37573252 154.41796875 122.8671875 C159.03220023 124.32643192 163.66345181 125.8317259 168 128 C168 128.66 168 129.32 168 130 C168.886875 130.226875 169.77375 130.45375 170.6875 130.6875 C174.49627112 132.19663573 176.23265515 134.01978247 179 137 C186.88496024 143.67188943 194.88035609 148.86954865 205 151 C205 151.66 205 152.32 205 153 C205.73863281 153.06058594 206.47726562 153.12117187 207.23828125 153.18359375 C209.36481231 153.35922846 211.49110157 153.53780652 213.6171875 153.71875 C215.76725804 153.89750875 217.91827874 154.06542444 220.0703125 154.21875 C221.01648437 154.2909375 221.96265625 154.363125 222.9375 154.4375 C223.79214844 154.49808594 224.64679687 154.55867187 225.52734375 154.62109375 C228 155 228 155 230.375 156.046875 C233.76695759 157.27847865 236.46900451 157.01276841 240.0625 156.8125 C246.78275484 156.69413935 251.49874494 157.88943219 257.51171875 160.80859375 C259.70901142 161.86067266 261.65110023 162.43356178 264 163 C265.5625 164.375 265.5625 164.375 267 166 C267.556875 166.556875 268.11375 167.11375 268.6875 167.6875 C269.120625 168.120625 269.55375 168.55375 270 169 C264.25203851 168.3844218 259.14974084 166.85017536 253.6875 165 C247.04773546 162.81360349 241.0208385 161.33432564 234 161 C233.34 160.67 232.68 160.34 232 160 C230.46331135 159.77532169 228.92031946 159.59203195 227.375 159.4375 C226.55773438 159.35371094 225.74046875 159.26992188 224.8984375 159.18359375 C22" fill="#808B8E" transform="translate(0,0)"/>
<path d="M0 0 C0 0 0 0 0 0 Z " fill="#424E4F" transform="translate(0,0)"/>
</svg>